<svg xmlns="http://www.w3.org/2000/svg" viewBox="0 0 624 240" role="img" aria-label="zosc — z · oscillator"><g fill="none" stroke="#090a0a" stroke-width="13" stroke-linecap="butt" stroke-linejoin="round"><path data-z d="M 22 62 L 128 62 L 22 178 L 132 178"/><path data-letter d="M 176 120 C 176 84.654 204.654 56 240 56 C 275.346 56 304 84.654 304 120 C 304 155.346 275.346 184 240 184 C 204.654 184 176 155.346 176 120"/><path data-letter d="M 432 65 L 378 65 C 354 65 338 76 338 94 C 338 111 355 120 378 120 L 403 120 C 426 120 444 129 444 147 C 444 165 428 175 404 175 L 349 175"/><path data-letter d="M 594 70 C 581 61 566 56 550 56 C 514.654 56 486 84.654 486 120 C 486 155.346 514.654 184 550 184 C 566 184 581 179 594 170"/><path data-sine d="M 204 120 C 210 120 214 108 222 108 C 230 108 233 120 240 120 C 247 120 250 132 258 132 C 266 132 270 120 276 120" stroke="#e7503a" stroke-width="5.5" stroke-linecap="round"/></g></svg>
